 <svg  version="1.0" xmlns="http://www.w3.org/2000/svg"  width="125.000000pt" height="119.000000pt" viewBox="0 0 125.000000 119.000000"  preserveAspectRatio="xMidYMid meet">  <g transform="translate(0.000000,119.000000) scale(0.050000,-0.050000)" fill="#fe5e00" stroke="none"> <path d="M940 2279 c-884 -244 -1149 -1326 -478 -1948 552 -511 1467 -328 1795 359 410 858 -405 1841 -1317 1589z m330 -149 c0 -26 -15 -42 -45 -46 -37 -6 -45 3 -45 46 0 43 8 52 45 46 30 -4 45 -20 45 -46z m-382 -22 c41 -16 41 -86 0 -101 -49 -19 -101 43 -69 82 30 36 27 35 69 19z m752 -60 c0 -53 -54 -66 -96 -24 -18 18 -16 31 8 58 41 46 88 27 88 -34z m-114 -159 c493 -197 630 -855 260 -1251 -349 -373 -1018 -284 -1248 166 -335 656 305 1359 988 1085z m-930 -34 c-7 -50 -73 -73 -97 -33 -22 35 15 78 65 78 29 0 37 -12 32 -45z m1352 13 c16 -42 -2 -68 -47 -68 -38 0 -69 51 -50 82 19 30 84 20 97 -14z m-1555 -300 c7 -17 -2 -46 -20 -64 -41 -41 -103 7 -82 62 17 43 86 44 102 2z m1757 -28 c0 -57 -63 -81 -82 -31 -18 47 7 95 47 87 22 -4 35 -25 35 -56z m-1834 -368 c-4 -27 -20 -42 -46 -42 -45 0 -67 67 -29 91 40 24 82 -2 75 -49z m1918 16 c10 -27 -22 -67 -54 -67 -5 0 -23 8 -38 17 -39 25 -12 82 38 82 23 0 47 -14 54 -32z m-1854 -338 c33 -40 11 -90 -40 -90 -23 0 -46 14 -53 30 -11 30 24 90 53 90 8 0 26 -13 40 -30z m1770 -40 c0 -26 -16 -42 -45 -46 -45 -7 -65 49 -31 83 27 27 76 2 76 -37z m-1550 -310 c0 -20 -11 -41 -25 -45 -40 -15 -75 7 -75 45 0 20 11 41 25 45 40 15 75 -7 75 -45z m1341 29 c42 -51 -27 -111 -74 -64 -33 32 -11 95 33 95 8 0 27 -14 41 -31z m-1027 -221 c13 -36 -28 -71 -74 -63 -16 3 -33 26 -36 50 -8 55 89 66 110 13z m722 -13 c-7 -48 -50 -65 -94 -37 -43 27 -10 82 49 82 42 0 51 -8 45 -45z m-366 -55 c15 -48 -2 -80 -42 -80 -35 0 -57 48 -41 90 17 43 68 37 83 -10z"/> <path d="M1041 1469 c-256 -56 -511 -235 -463 -325 176 -329 897 -374 1216 -76 l108 102 -59 71 c-159 190 -512 291 -802 228z m270 -118 c164 -69 154 -293 -15 -360 -141 -57 -276 49 -276 217 0 78 30 112 46 52 12 -46 78 -53 112 -13 24 30 10 93 -21 93 -11 0 -14 9 -7 20 18 28 80 25 161 -9z"/> </g> </svg> 